{"title":"Lets.Dance.For.Comic.Relief.S05E04.Final.PDTV.x264-W33D","uid":8247976,"size":1175440815,"categoryP":"video","categoryS":"tv_shows","magnet":"?xt=urn:btih:0f1e6f4af6adedb34d9e67be1ca3403a7662aa92&amp;dn=Lets.Dance.For.Comic.Relief.S05E04.Final.PDTV.x264-W33D&amp;tr=udp%3A%2F%2Ftracker.openbittorrent.com%3A80&amp;tr=udp%3A%2F%2Fopen.demonii.com%3A1337&amp;tr=udp%3A%2F%2Ftracker.coppersurfer.tk%3A6969&amp;tr=udp%3A%2F%2Fexodus.desync.com%3A6969","seeders":1,"leechers":0,"uploader":"W33DandSHANE","files":1,"time":1363103165,"description":"Let's Dance for Comic/Sport Relief is a British television programme shown on BBC One, featuring celebrities performing famous dance routines to raise money for the charities Comic Relief and Sport Relief.[1] The programme is currently presented by Steve Jones and Alex Jones, who replaced previous host Claudia Winkleman in 2011. In the first series, Anton du Beke was a regular judge, appearing alongside two guest panellists, but in the second series onwards, three guest judges were on the panel each week.\n\nGeneral\nComplete name : Lets.Dance.For.Comic.Relief.S05E04.Final.PDTV.x264-W33D.mp4\nFormat : MPEG-4\nFormat profile : Base Media\nCodec ID : isom\nFile size : 1.09 GiB\nDuration : 1h 24mn\nOverall bit rate mode : Variable\nOverall bit rate : 1 865 Kbps\nWriting application : Lavf52.64.2\n\nVideo\nID : 1\nFormat : AVC\nFormat/Info : Advanced Video Codec\nFormat profile : &lt;a class=&quot;__cf_email__&quot; href=&quot;/cdn-cgi/l/email-protection&quot; data-cfemail=&quot;c58daca2ad8589f6ebf4&quot;&gt;[email&amp;#160;protected]&lt;/a&gt;&lt;script cf-hash='f9e31' type=&quot;text/javascript&quot;&gt;\n/* &lt;![CDATA[ */!function(){try{var t=&quot;currentScript&quot;in document?document.currentScript:function(){for(var t=document.getElementsByTagName(&quot;script&quot;),e=t.length;e--;)if(t[e].getAttribute(&quot;cf-hash&quot;))return t[e]}();if(t&amp;&amp;t.previousSibling){var e,r,n,i,c=t.previousSibling,a=c.getAttribute(&quot;data-cfemail&quot;);if(a){for(e=&quot;&quot;,r=parseInt(a.substr(0,2),16),n=2;a.length-n;n+=2)i=parseInt(a.substr(n,2),16)^r,e+=String.fromCharCode(i);e=document.createTextNode(e),c.parentNode.replaceChild(e,c)}}}catch(u){}}();/* ]]&gt; */&lt;/script&gt;\nFormat settings, CABAC : Yes\nFormat settings, ReFrames : 4 frames\nCodec ID : avc1\nCodec ID/Info : Advanced Video Coding\nDuration : 1h 24mn\nBit rate : 1 721 Kbps\nWidth : 688 pixels\nHeight : 384 pixels\nDisplay aspect ratio : 16:9\nFrame rate mode : Constant\nFrame rate : 25.000 fps\nColor space : YUV\nChroma subsampling : 4:2:0\nBit depth : 8 bits\nScan type : Progressive\nBits/(Pixel*Frame) : 0.261\nStream size : 1.01 GiB (92%)\n\nAudio\nID : 2\nFormat : AAC\nFormat/Info : Advanced Audio Codec\nFormat profile : LC\nCodec ID : 40\nDuration : 1h 24mn\nDuration_LastFrame : -21ms\nBit rate mode : Variable\nBit rate : 138 Kbps\nChannel(s) : 2 channels\nChannel positions : Front: L R\nSampling rate : 48.0 KHz\nCompression mode : Lossy\nDelay relative to video : 200ms\nStream size : 82.9 MiB (7%)\n","torrent":{"xt":"urn:btih:0f1e6f4af6adedb34d9e67be1ca3403a7662aa92","amp;dn":"Lets.Dance.For.Comic.Relief.S05E04.Final.PDTV.x264-W33D","amp;tr":["udp%3A%2F%2Ftracker.openbittorrent.com%3A80","udp%3A%2F%2Fopen.demonii.com%3A1337","udp%3A%2F%2Ftracker.coppersurfer.tk%3A6969","udp%3A%2F%2Fexodus.desync.com%3A6969"],"infoHash":"0f1e6f4af6adedb34d9e67be1ca3403a7662aa92","infoHashBuffer":{"type":"Buffer","data":[15,30,111,74,246,173,237,179,77,158,103,190,28,163,64,58,118,98,170,146]},"announce":[],"urlList":[]}}